<svg xmlns="http://www.w3.org/2000/svg" xmlns:xlink="http://www.w3.org/1999/xlink" contentStyleType="text/css" height="504px" preserveAspectRatio="none" style="width:489px;height:504px;background:#FFFFFF;" version="1.1" viewBox="0 0 489 504" width="489px" zoomAndPan="magnify"><defs/><g><line style="stroke:#181818;stroke-width:0.5;stroke-dasharray:5.0,5.0;" x1="40" x2="40" y1="36.2969" y2="469.0234"/><line style="stroke:#181818;stroke-width:0.5;stroke-dasharray:5.0,5.0;" x1="240.1851" x2="240.1851" y1="36.2969" y2="469.0234"/><line style="stroke:#181818;stroke-width:0.5;stroke-dasharray:5.0,5.0;" x1="440.2583" x2="440.2583" y1="36.2969" y2="469.0234"/><rect fill="#E2E2F0" height="30.2969" rx="2.5" ry="2.5" style="stroke:#181818;stroke-width:0.5;" width="71.0391" x="5" y="5"/><text fill="#000000" font-family="sans-serif" font-size="14" lengthAdjust="spacing" textLength="57.0391" x="12" y="24.9951">Browser</text><rect fill="#E2E2F0" height="30.2969" rx="2.5" ry="2.5" style="stroke:#181818;stroke-width:0.5;" width="71.0391" x="5" y="468.0234"/><text fill="#000000" font-family="sans-serif" font-size="14" lengthAdjust="spacing" textLength="57.0391" x="12" y="488.0186">Browser</text><rect fill="#E2E2F0" height="30.2969" rx="2.5" ry="2.5" style="stroke:#181818;stroke-width:0.5;" width="53.334" x="214.1851" y="5"/><text fill="#000000" font-family="sans-serif" font-size="14" lengthAdjust="spacing" textLength="39.334" x="221.1851" y="24.9951">Proxy</text><rect fill="#E2E2F0" height="30.2969" rx="2.5" ry="2.5" style="stroke:#181818;stroke-width:0.5;" width="53.334" x="214.1851" y="468.0234"/><text fill="#000000" font-family="sans-serif" font-size="14" lengthAdjust="spacing" textLength="39.334" x="221.1851" y="488.0186">Proxy</text><rect fill="#E2E2F0" height="30.2969" rx="2.5" ry="2.5" style="stroke:#181818;stroke-width:0.5;" width="71.8525" x="405.2583" y="5"/><text fill="#000000" font-family="sans-serif" font-size="14" lengthAdjust="spacing" textLength="57.8525" x="412.2583" y="24.9951">Youtube</text><rect fill="#E2E2F0" height="30.2969" rx="2.5" ry="2.5" style="stroke:#181818;stroke-width:0.5;" width="71.8525" x="405.2583" y="468.0234"/><text fill="#000000" font-family="sans-serif" font-size="14" lengthAdjust="spacing" textLength="57.8525" x="412.2583" y="488.0186">Youtube</text><rect fill="#EEEEEE" height="3" style="stroke:#EEEEEE;stroke-width:1.0;" width="482.1108" x="0" y="66.8633"/><line style="stroke:#000000;stroke-width:1.0;" x1="0" x2="482.1108" y1="66.8633" y2="66.8633"/><line style="stroke:#000000;stroke-width:1.0;" x1="0" x2="482.1108" y1="69.8633" y2="69.8633"/><rect fill="#EEEEEE" height="23.1328" style="stroke:#000000;stroke-width:2.0;" width="156.4985" x="162.8062" y="56.2969"/><text fill="#000000" font-family="sans-serif" font-size="13" font-weight="bold" lengthAdjust="spacing" textLength="137.9727" x="168.8062" y="72.3638">Proxy initialization</text><polygon fill="#181818" points="228.8521,106.5625,238.8521,110.5625,228.8521,114.5625,232.8521,110.5625" style="stroke:#181818;stroke-width:1.0;"/><line style="stroke:#181818;stroke-width:1.0;" x1="40.5195" x2="234.8521" y1="110.5625" y2="110.5625"/><text fill="#000000" font-family="sans-serif" font-size="13" font-weight="bold" lengthAdjust="spacing" textLength="9.0454" x="47.5195" y="105.4966">1</text><text fill="#000000" font-family="sans-serif" font-size="13" lengthAdjust="spacing" textLength="163.2871" x="60.5649" y="105.4966">Establish TCP connection</text><polygon fill="#181818" points="51.5195,135.6953,41.5195,139.6953,51.5195,143.6953,47.5195,139.6953" style="stroke:#181818;stroke-width:1.0;"/><line style="stroke:#181818;stroke-width:1.0;stroke-dasharray:2.0,2.0;" x1="45.5195" x2="239.8521" y1="139.6953" y2="139.6953"/><text fill="#000000" font-family="sans-serif" font-size="13" font-weight="bold" lengthAdjust="spacing" textLength="9.0454" x="57.5195" y="134.6294">2</text><text fill="#000000" font-family="sans-serif" font-size="13" lengthAdjust="spacing" textLength="123.5063" x="70.5649" y="134.6294">TCP connection OK</text><polygon fill="#181818" points="228.8521,164.8281,238.8521,168.8281,228.8521,172.8281,232.8521,168.8281" style="stroke:#181818;stroke-width:1.0;"/><line style="stroke:#181818;stroke-width:1.0;" x1="40.5195" x2="234.8521" y1="168.8281" y2="168.8281"/><text fill="#000000" font-family="sans-serif" font-size="13" font-weight="bold" lengthAdjust="spacing" textLength="9.0454" x="47.5195" y="163.7622">3</text><text fill="#000000" font-family="sans-serif" font-size="13" lengthAdjust="spacing" textLength="150" x="60.5649" y="163.7622">HTTP CONNECT host:port</text><polygon fill="#181818" points="429.1846,193.9609,439.1846,197.9609,429.1846,201.9609,433.1846,197.9609" style="stroke:#181818;stroke-width:1.0;"/><line style="stroke:#181818;stroke-width:1.0;" x1="240.8521" x2="435.1846" y1="197.9609" y2="197.9609"/><text fill="#000000" font-family="sans-serif" font-size="13" font-weight="bold" lengthAdjust="spacing" textLength="9.0454" x="247.8521" y="192.895">4</text><text fill="#000000" font-family="sans-serif" font-size="13" lengthAdjust="spacing" textLength="163.2871" x="260.8975" y="192.895">Establish TCP connection</text><polygon fill="#181818" points="251.8521,223.0938,241.8521,227.0938,251.8521,231.0938,247.8521,227.0938" style="stroke:#181818;stroke-width:1.0;"/><line style="stroke:#181818;stroke-width:1.0;stroke-dasharray:2.0,2.0;" x1="245.8521" x2="440.1846" y1="227.0938" y2="227.0938"/><text fill="#000000" font-family="sans-serif" font-size="13" font-weight="bold" lengthAdjust="spacing" textLength="9.0454" x="257.8521" y="222.0278">5</text><text fill="#000000" font-family="sans-serif" font-size="13" lengthAdjust="spacing" textLength="123.5063" x="270.8975" y="222.0278">TCP connection OK</text><polygon fill="#181818" points="51.5195,252.2266,41.5195,256.2266,51.5195,260.2266,47.5195,256.2266" style="stroke:#181818;stroke-width:1.0;"/><line style="stroke:#181818;stroke-width:1.0;stroke-dasharray:2.0,2.0;" x1="45.5195" x2="239.8521" y1="256.2266" y2="256.2266"/><text fill="#000000" font-family="sans-serif" font-size="13" font-weight="bold" lengthAdjust="spacing" textLength="9.0454" x="57.5195" y="251.1606">6</text><text fill="#000000" font-family="sans-serif" font-size="13" lengthAdjust="spacing" textLength="85.3315" x="70.5649" y="251.1606">HTTP 200 OK</text><path d="M7,269.2266 L7,294.2266 L474,294.2266 L474,279.2266 L464,269.2266 L7,269.2266 " fill="#FEFFDD" style="stroke:#181818;stroke-width:0.5;"/><path d="M464,269.2266 L464,279.2266 L474,279.2266 L464,269.2266 " fill="#FEFFDD" style="stroke:#181818;stroke-width:0.5;"/><text fill="#000000" font-family="sans-serif" font-size="13" lengthAdjust="spacing" textLength="393.9355" x="39.0876" y="286.2935">For Browser, the TCP connection acts as if Proxy is not there</text><rect fill="#EEEEEE" height="3" style="stroke:#EEEEEE;stroke-width:1.0;" width="482.1108" x="0" y="319.9258"/><line style="stroke:#000000;stroke-width:1.0;" x1="0" x2="482.1108" y1="319.9258" y2="319.9258"/><line style="stroke:#000000;stroke-width:1.0;" x1="0" x2="482.1108" y1="322.9258" y2="322.9258"/><rect fill="#EEEEEE" height="23.1328" style="stroke:#000000;stroke-width:2.0;" width="157.895" x="162.1079" y="309.3594"/><text fill="#000000" font-family="sans-serif" font-size="13" font-weight="bold" lengthAdjust="spacing" textLength="139.3691" x="168.1079" y="325.4263">Tunnel Established</text><polygon fill="#181818" points="228.8521,359.625,238.8521,363.625,228.8521,367.625,232.8521,363.625" style="stroke:#181818;stroke-width:1.0;"/><line style="stroke:#181818;stroke-width:1.0;" x1="40.5195" x2="234.8521" y1="363.625" y2="363.625"/><text fill="#000000" font-family="sans-serif" font-size="13" font-weight="bold" lengthAdjust="spacing" textLength="9.0454" x="47.5195" y="358.5591">7</text><text fill="#000000" font-family="sans-serif" font-size="13" lengthAdjust="spacing" textLength="155.6191" x="60.5649" y="358.5591">GET youtube.com/video</text><polygon fill="#181818" points="429.1846,388.7578,439.1846,392.7578,429.1846,396.7578,433.1846,392.7578" style="stroke:#181818;stroke-width:1.0;"/><line style="stroke:#181818;stroke-width:1.0;" x1="240.8521" x2="435.1846" y1="392.7578" y2="392.7578"/><text fill="#000000" font-family="sans-serif" font-size="13" font-weight="bold" lengthAdjust="spacing" textLength="9.0454" x="247.8521" y="387.6919">8</text><text fill="#000000" font-family="sans-serif" font-size="13" lengthAdjust="spacing" textLength="4.1323" x="260.8975" y="387.6919"> </text><polygon fill="#181818" points="251.8521,417.8906,241.8521,421.8906,251.8521,425.8906,247.8521,421.8906" style="stroke:#181818;stroke-width:1.0;"/><line style="stroke:#181818;stroke-width:1.0;stroke-dasharray:2.0,2.0;" x1="245.8521" x2="440.1846" y1="421.8906" y2="421.8906"/><text fill="#000000" font-family="sans-serif" font-size="13" font-weight="bold" lengthAdjust="spacing" textLength="9.0454" x="257.8521" y="416.8247">9</text><text fill="#000000" font-family="sans-serif" font-size="13" lengthAdjust="spacing" textLength="52.5586" x="270.8975" y="416.8247">reponse</text><polygon fill="#181818" points="51.5195,447.0234,41.5195,451.0234,51.5195,455.0234,47.5195,451.0234" style="stroke:#181818;stroke-width:1.0;"/><line style="stroke:#181818;stroke-width:1.0;stroke-dasharray:2.0,2.0;" x1="45.5195" x2="239.8521" y1="451.0234" y2="451.0234"/><text fill="#000000" font-family="sans-serif" font-size="13" font-weight="bold" lengthAdjust="spacing" textLength="18.0908" x="57.5195" y="445.9575">10</text><text fill="#000000" font-family="sans-serif" font-size="13" lengthAdjust="spacing" textLength="4.1323" x="79.6104" y="445.9575"> </text><!--SRC=[VP31QiCm44Jl-ehzWAODFHeSS8tRGY0HM9SUPMLB5Xnja5Pfqw-lvTO93gNNsQVHpDWaxDEXmw2q3KAEZjOBF0N-Y1Z0HcXd1ntuyvnbFPFVE4dgC1ygfShoboDFGhQdBol47ifIgHOMAz05D55irrFSWwarEFOUNOQKXiL0jCMD3jlrvUshCHhgxMRJr2RpAwZ-CQn6G_sNuUMlqV5nkSoYyYn34nSunWAUEKnht87iyTR5EecvDhrFdICC1XaDE4vXqW3trtoucmtnqXWu_yntx_ZmSA8TyjJg6ZxWaNt4AV8t]--></g></svg>